<?xml version="1.0" encoding="UTF-8" standalone="no"?><!DOCTYPE svg PUBLIC "-//W3C//DTD SVG 1.1//EN" "http://www.w3.org/Graphics/SVG/1.1/DTD/svg11.dtd"><svg width="100%" height="100%" viewBox="0 0 120 112" version="1.1" xmlns="http://www.w3.org/2000/svg" xmlns:xlink="http://www.w3.org/1999/xlink" xml:space="preserve" xmlns:serif="http://www.serif.com/" style="fill-rule:evenodd;clip-rule:evenodd;stroke-linejoin:round;stroke-miterlimit:2;"><g id="g2537_1_"></g><g><g transform="matrix(0.0969963,0,0,0.0969963,10.2817,13.2086)"><path d="M582.89,507.334L582.944,507.388C571.009,518.535 540.513,521.015 500.213,521.051L499.389,521.051C459.081,521.015 428.585,518.535 416.65,507.388L416.703,507.334C426.445,513.485 434.781,511.023 447.36,502.67C461.74,493.116 479.736,478.773 499.801,461.358C519.857,478.773 537.854,493.116 552.233,502.67C564.813,511.023 573.149,513.485 582.89,507.334Z" style="fill:rgb(0,152,202);fill-rule:nonzero;"/><path d="M648.762,316.239C646.47,330.922 644.079,344.102 641.724,354.631C633.765,390.231 611.703,472.523 591.772,498.9C588.961,501.613 586.096,504.38 583.15,507.2C583.087,507.263 583.016,507.325 582.944,507.388L582.89,507.334C573.149,513.485 564.813,511.023 552.233,502.67C537.854,493.116 519.857,478.773 499.801,461.358C544.981,422.132 600.601,367.274 648.762,316.239Z" style="fill:rgb(0,178,218);fill-rule:nonzero;"/><path d="M416.703,507.334L416.65,507.388C416.578,507.325 416.506,507.263 416.444,507.2C413.507,504.389 410.651,501.631 407.848,498.927C387.909,472.604 365.847,390.249 357.87,354.631C355.515,344.093 353.124,330.913 350.832,316.221C398.984,367.256 454.613,422.123 499.801,461.358C479.736,478.773 461.74,493.116 447.36,502.67C434.781,511.023 426.445,513.485 416.703,507.334Z" style="fill:url(#_Linear1);fill-rule:nonzero;"/><path d="M751.172,166.365C752.498,203.683 747.072,308.888 725.646,341.022C682.803,405.291 652.46,440.263 591.772,498.9C611.703,472.523 633.765,390.231 641.724,354.631C644.079,344.102 646.47,330.922 648.762,316.239C681.084,281.982 710.049,249.445 730.23,224.518C744.86,206.45 751.172,184.568 751.038,166.419C751.02,164.1 750.949,161.826 750.832,159.596C750.984,161.924 751.101,164.198 751.172,166.365Z" style="fill:rgb(0,163,138);fill-rule:nonzero;"/><path d="M248.556,166.419C248.421,184.568 254.734,206.45 269.364,224.518C289.545,249.445 318.501,281.973 350.832,316.221C353.124,330.913 355.515,344.093 357.87,354.631C365.847,390.249 387.909,472.604 407.848,498.927C347.143,440.272 316.791,405.3 273.948,341.022C252.531,308.888 247.105,203.683 248.421,166.365C248.502,164.198 248.609,161.933 248.762,159.605C248.645,161.826 248.573,164.1 248.556,166.419Z" style="fill:rgb(0,163,138);fill-rule:nonzero;"/><path d="M576.963,289.342C566.487,300.364 539.591,303.838 499.801,304.277C460.012,303.838 433.106,300.364 422.631,289.342L422.675,289.306C434.593,302.047 467.407,269.215 499.801,230.884C532.195,269.215 565.001,302.047 576.918,289.306L576.963,289.342Z" style="fill:rgb(108,169,67);fill-rule:nonzero;"/><path d="M576.918,289.306C565.001,302.047 532.195,269.215 499.801,230.884C522.588,203.925 545.169,174.262 560.121,155.809C599.428,107.325 616.242,88.317 632.439,76.991C632.511,76.937 632.583,76.892 632.654,76.847C655.862,65.414 663.034,116.941 663.786,147.921C664.028,157.85 663.66,170.752 662.837,185.391C631.956,223.713 609.554,251.316 577.661,288.572C577.438,288.832 577.205,289.091 576.963,289.342L576.918,289.306Z" style="fill:rgb(147,196,62);fill-rule:nonzero;"/><path d="M422.675,289.306L422.631,289.342C422.389,289.091 422.156,288.832 421.932,288.572C390.04,251.316 367.638,223.713 336.757,185.391C335.933,170.752 335.566,157.85 335.808,147.921C336.56,116.941 343.741,65.414 366.94,76.847C367.011,76.892 367.083,76.937 367.154,76.991C383.351,88.317 400.166,107.325 439.472,155.809C454.425,174.262 477.006,203.925 499.801,230.884C467.407,269.215 434.593,302.047 422.675,289.306Z" style="fill:url(#_Linear2);fill-rule:nonzero;"/><path d="M737.133,115.186C743.41,120.8 746.982,131.742 748.961,143.381C746.32,128.948 741.449,118.589 735.978,115.813C725.771,110.62 690.288,151.323 664.627,183.162C664.028,183.905 663.428,184.648 662.837,185.391C663.66,170.752 664.028,157.85 663.786,147.921C663.034,116.941 655.862,65.414 632.654,76.847C657.742,59.719 713.254,93.814 737.133,115.186Z" style="fill:rgb(189,203,49);fill-rule:nonzero;"/><path d="M334.966,183.162C309.314,151.323 273.823,110.62 263.615,115.813C258.181,118.571 253.328,128.823 250.678,143.113C252.674,131.571 256.238,120.756 262.46,115.186C286.34,93.814 341.852,59.719 366.94,76.847C343.741,65.414 336.56,116.941 335.808,147.921C335.566,157.85 335.933,170.752 336.757,185.391C336.166,184.648 335.566,183.905 334.966,183.162Z" style="fill:rgb(189,203,49);fill-rule:nonzero;"/><path d="M751.038,166.419C751.172,184.568 744.86,206.45 730.23,224.518C710.049,249.445 681.084,281.982 648.762,316.239C655.047,276.001 660.607,224.5 662.837,185.391C663.428,184.648 664.028,183.905 664.627,183.162C690.288,151.323 725.771,110.62 735.978,115.813C741.449,118.589 746.32,128.948 748.961,143.381C749.883,148.762 750.465,154.287 750.823,159.516C750.823,159.542 750.832,159.569 750.832,159.596C750.949,161.826 751.02,164.1 751.038,166.419Z" style="fill:rgb(207,212,41);fill-rule:nonzero;"/><path d="M336.757,185.391C338.987,224.5 344.547,275.992 350.832,316.221C318.501,281.973 289.545,249.445 269.364,224.518C254.734,206.45 248.421,184.568 248.556,166.419C248.573,164.1 248.645,161.826 248.762,159.605C248.762,159.578 248.77,159.542 248.77,159.516C249.129,154.278 249.711,148.744 250.633,143.354C250.651,143.274 250.66,143.193 250.678,143.113C253.328,128.823 258.181,118.571 263.615,115.813C273.823,110.62 309.314,151.323 334.966,183.162C335.566,183.905 336.166,184.648 336.757,185.391Z" style="fill:rgb(207,212,41);fill-rule:nonzero;"/></g><g transform="matrix(0.0969963,0,0,0.0969963,10.2817,13.2086)"><g><path d="M142.14,794.743C142.14,803.901 134.569,808.843 120.914,808.843C113.614,808.843 105.435,807.195 99.08,804.362L103.272,792.898C107.26,794.677 116.588,797.181 120.914,797.181C125.511,797.181 127.066,795.929 127.066,794.216C127.066,792.041 123.821,791.251 118.819,790.064C110.64,788.088 99.892,784.991 99.892,774.845C99.892,766.279 106.922,760.877 121.049,760.877C127.471,760.877 134.839,762.129 140.518,764.566L136.056,775.833C131.189,773.923 124.768,772.671 121.049,772.671C116.318,772.671 114.696,773.461 114.696,775.043C114.696,776.624 118.413,777.612 122.672,778.864C131.324,781.434 142.14,784.398 142.14,794.743Z" style="fill-rule:nonzero;"/><path d="M193.442,761.799L193.442,774.581L178.84,774.581L178.84,807.854L164.713,807.854L164.713,774.581L150.112,774.581L150.112,761.799L193.442,761.799Z" style="fill-rule:nonzero;"/><path d="M247.854,807.854L233.388,807.854L230.346,799.553L212.095,799.553L208.986,807.854L194.52,807.854L212.974,761.799L229.467,761.799L247.854,807.854ZM226.358,788.747L221.221,774.911L216.083,788.747L226.358,788.747Z" style="fill-rule:nonzero;"/><path d="M300.303,761.799L300.303,807.854L289.082,807.854L270.156,784.859L270.156,807.854L256.028,807.854L256.028,761.799L267.248,761.799L286.176,784.728L286.176,761.799L300.303,761.799Z" style="fill-rule:nonzero;"/><path d="M360.12,784.794C360.12,797.51 350.658,807.854 335.042,807.854L313.615,807.854L313.615,761.799L335.042,761.799C350.658,761.799 360.12,772.077 360.12,784.794ZM345.52,784.794C345.52,778.93 341.938,774.186 334.232,774.186L327.742,774.186L327.742,795.468L334.232,795.468C341.938,795.468 345.52,790.658 345.52,784.794Z" style="fill-rule:nonzero;"/><path d="M416.154,807.854L401.688,807.854L398.646,799.553L380.395,799.553L377.285,807.854L362.82,807.854L381.274,761.799L397.767,761.799L416.154,807.854ZM394.658,788.747L389.52,774.911L384.383,788.747L394.658,788.747Z" style="fill-rule:nonzero;"/><path d="M471.442,807.854L455.422,807.854L446.026,795.336L438.658,795.336L438.658,807.854L424.531,807.854L424.531,761.799L450.555,761.799C461.438,761.799 468.535,769.311 468.535,778.534C468.535,784.465 464.885,789.208 459.68,792.107L471.442,807.854ZM454.137,778.469C454.137,775.833 452.244,773.593 448.392,773.593L438.658,773.593L438.658,783.278L448.392,783.278C452.244,783.278 454.137,781.104 454.137,778.469Z" style="fill-rule:nonzero;"/><path d="M526.799,784.794C526.799,797.51 517.336,807.854 501.721,807.854L480.293,807.854L480.293,761.799L501.721,761.799C517.336,761.799 526.799,772.077 526.799,784.794ZM512.199,784.794C512.199,778.93 508.616,774.186 500.91,774.186L494.421,774.186L494.421,795.468L500.91,795.468C508.616,795.468 512.199,790.658 512.199,784.794Z" style="fill-rule:nonzero;"/><path d="M576.208,794.743C576.208,803.901 568.637,808.843 554.983,808.843C547.682,808.843 539.503,807.195 533.149,804.362L537.34,792.898C541.328,794.677 550.657,797.181 554.983,797.181C559.579,797.181 561.134,795.929 561.134,794.216C561.134,792.041 557.889,791.251 552.887,790.064C544.708,788.088 533.96,784.991 533.96,774.845C533.96,766.279 540.991,760.877 555.117,760.877C561.539,760.877 568.908,762.129 574.586,764.566L570.124,775.833C565.257,773.923 558.836,772.671 555.117,772.671C550.386,772.671 548.764,773.461 548.764,775.043C548.764,776.624 552.482,777.612 556.741,778.864C565.393,781.434 576.208,784.398 576.208,794.743Z" style="fill-rule:nonzero;"/><path d="M640.647,774.12C640.647,774.12 640.647,781.434 640.647,781.434L661.466,781.434L661.466,793.755L640.647,793.755L640.647,807.854L626.519,807.854L626.519,761.799L666.468,761.799L666.468,774.12L640.647,774.12Z" style="fill-rule:nonzero;"/><path d="M722.434,784.662C722.434,798.104 711.484,809.106 697.018,809.106C682.552,809.106 671.602,798.104 671.602,784.662C671.602,771.221 682.552,760.284 697.018,760.284C711.484,760.284 722.434,771.221 722.434,784.662ZM708.307,784.662C708.307,778.732 703.643,773.396 697.018,773.396C690.394,773.396 685.73,778.732 685.73,784.662C685.73,790.592 690.394,795.995 697.018,795.995C703.643,795.995 708.307,790.592 708.307,784.662Z" style="fill-rule:nonzero;"/><path d="M779.481,807.854L763.461,807.854L754.065,795.336L746.697,795.336L746.697,807.854L732.57,807.854L732.57,761.799L758.594,761.799C769.477,761.799 776.575,769.311 776.575,778.534C776.575,784.465 772.924,789.208 767.719,792.107L779.481,807.854ZM762.176,778.469C762.176,775.833 760.284,773.593 756.431,773.593L746.697,773.593L746.697,783.278L756.431,783.278C760.284,783.278 762.176,781.104 762.176,778.469Z" style="fill-rule:nonzero;"/><path d="M833.826,761.667L833.826,786.243C833.826,799.75 825.173,809.106 810.775,809.106C796.377,809.106 787.725,799.75 787.725,786.243L787.725,761.667L801.852,761.667L801.852,786.705C801.852,791.515 804.759,796.258 810.775,796.258C816.791,796.258 819.698,791.515 819.698,786.705L819.698,761.667L833.826,761.667Z" style="fill-rule:nonzero;"/><path d="M900.336,761.799L900.336,807.854L886.479,807.854L886.479,784.662L877.218,798.564L869.986,798.564L860.725,784.662L860.725,807.854L846.867,807.854L846.867,761.799L859.711,761.799L873.568,782.686L887.492,761.799L900.336,761.799Z" style="fill-rule:nonzero;"/></g></g><g transform="matrix(0.0969963,0,0,0.0969963,10.2817,13.2086)"><path d="M101.303,717.165L101.303,607.079C101.303,604.785 102.984,603.147 105.337,603.147L121.472,603.147C123.153,603.147 124.665,604.131 125.338,605.769L162.987,708.646L200.636,605.769C201.308,604.131 202.821,603.147 204.501,603.147L220.637,603.147C222.99,603.147 224.67,604.785 224.67,607.079L224.67,717.165C224.67,719.459 222.99,721.097 220.637,721.097L214.586,721.097C212.233,721.097 210.552,719.459 210.552,717.165L210.552,615.598L172.904,718.476C172.231,720.113 170.718,721.097 169.037,721.097L156.768,721.097C155.087,721.097 153.574,720.113 152.903,718.476L115.421,615.598L115.421,717.165C115.421,719.459 113.741,721.097 111.388,721.097L105.337,721.097C102.984,721.097 101.303,719.459 101.303,717.165Z" style="fill-rule:nonzero;"/><path d="M288.71,711.432C299.635,711.432 306.19,707.008 309.719,703.732C310.896,702.749 312.576,702.258 314.089,702.913L319.131,704.715C321.989,705.861 322.829,708.155 320.813,710.285C315.098,716.182 304.677,722.734 288.71,722.734C261.986,722.734 246.859,705.043 246.859,680.797C246.859,656.553 261.986,638.859 287.03,638.859C309.383,638.859 327.367,652.621 326.864,682.6C326.864,684.729 325.182,686.203 322.997,686.203L260.978,686.203C262.826,700.947 271.567,711.432 288.71,711.432ZM287.03,650.163C271.903,650.163 262.826,660.647 260.978,675.555L312.241,675.555C312.241,660.976 302.492,650.163 287.03,650.163Z" style="fill-rule:nonzero;"/><path d="M353.254,685.876L353.254,651.802L340.649,651.802C338.295,651.802 336.615,650.163 336.615,647.87L336.615,644.43C336.615,642.137 338.295,640.498 340.649,640.498L353.254,640.498L353.254,621.004C353.254,618.71 354.935,617.072 357.288,617.072L363.003,617.072C365.356,617.072 367.036,618.71 367.036,621.004L367.036,640.498L387.373,640.498C389.727,640.498 391.408,642.137 391.408,644.43L391.408,647.87C391.408,650.163 389.727,651.802 387.373,651.802L367.036,651.802L367.036,685.876C367.036,703.404 368.549,711.432 379.642,711.432C381.659,711.432 383.676,711.268 385.357,710.939C387.71,710.612 389.727,711.596 390.399,713.889L391.408,717.492C392.079,719.622 391.072,721.424 388.886,721.916C386.701,722.243 383.676,722.734 379.642,722.734C357.96,722.734 353.254,710.448 353.254,685.876Z" style="fill-rule:nonzero;"/><path d="M465.193,717.165L465.193,708.155C461.494,716.182 449.561,722.734 436.955,722.734C418.971,722.734 405.189,715.035 405.189,697.507C405.189,669.821 441.829,670.477 465.193,671.623C464.856,659.01 461.494,650.163 441.829,650.163C432.753,650.163 424.518,653.112 418.635,656.061C417.963,656.389 417.122,656.553 416.45,656.553C415.106,656.553 413.929,656.061 413.089,654.75L410.904,651.474C409.559,649.508 409.896,647.379 412.08,646.068C418.299,642.955 428.384,638.859 441.829,638.859C472.755,638.859 478.974,654.586 478.974,675.719L478.974,717.165C478.974,719.459 477.293,721.097 474.941,721.097L469.226,721.097C466.873,721.097 465.193,719.459 465.193,717.165ZM418.635,697.507C418.635,706.189 425.359,711.432 438.804,711.432C456.788,711.432 465.193,701.438 465.193,688.333L465.193,681.944C445.36,681.453 418.635,680.306 418.635,697.507Z" style="fill-rule:nonzero;"/><path d="M522.172,718.64L492.423,645.904C491.078,642.628 492.591,640.498 496.12,640.498L502.171,640.498C503.684,640.498 505.197,641.48 505.868,642.955L530.072,703.568L554.275,642.955C554.947,641.48 556.459,640.498 557.972,640.498L564.023,640.498C567.553,640.498 569.066,642.628 567.721,645.904L537.971,718.64C537.299,720.113 535.786,721.097 534.274,721.097L525.869,721.097C524.357,721.097 522.844,720.113 522.172,718.64Z" style="fill-rule:nonzero;"/><path d="M619.659,711.432C630.584,711.432 637.139,707.008 640.668,703.732C641.845,702.749 643.526,702.258 645.038,702.913L650.08,704.715C652.938,705.861 653.779,708.155 651.762,710.285C646.047,716.182 635.626,722.734 619.659,722.734C592.935,722.734 577.808,705.043 577.808,680.797C577.808,656.553 592.935,638.859 617.979,638.859C640.332,638.859 658.317,652.621 657.813,682.6C657.813,684.729 656.131,686.203 653.947,686.203L591.927,686.203C593.776,700.947 602.516,711.432 619.659,711.432ZM617.979,650.163C602.852,650.163 593.776,660.647 591.927,675.555L643.19,675.555C643.19,660.976 633.442,650.163 617.979,650.163Z" style="fill-rule:nonzero;"/><path d="M679.328,717.165L679.328,644.43C679.328,642.137 681.009,640.498 683.362,640.498L689.076,640.498C691.598,640.498 693.111,641.973 693.111,644.43L693.279,653.439C693.447,652.948 698.657,638.859 715.464,638.859C718.826,638.859 721.347,639.188 723.532,639.679C725.213,640.007 726.389,641.48 726.389,643.283L726.389,646.231C726.389,649.344 724.372,650.818 721.347,650.491C719.498,650.327 717.481,650.163 715.296,650.163C701.01,650.163 693.111,660.647 693.111,676.374L693.111,717.165C693.111,719.459 691.43,721.097 689.076,721.097L683.362,721.097C681.009,721.097 679.328,719.459 679.328,717.165Z" style="fill-rule:nonzero;"/><path d="M741.857,704.551L747.403,702.913C748.915,702.422 750.765,703.076 751.941,704.224C755.807,708.155 762.194,711.432 771.438,711.432C784.043,711.432 791.943,706.517 791.943,699.309C791.943,690.954 785.388,688.169 770.429,685.057C748.411,680.961 740.344,673.262 740.344,661.139C740.344,649.181 749.756,638.859 771.438,638.859C788.245,638.859 796.313,645.249 800.515,650.982C802.196,653.275 801.188,655.405 798.498,656.225L793.119,657.863C791.607,658.354 789.758,657.699 788.581,656.553C785.893,653.768 780.85,650.163 771.438,650.163C760.345,650.163 754.126,654.423 754.126,661.139C754.126,667.2 759.168,670.312 772.783,673.262C795.641,677.521 805.725,683.746 805.725,699.309C805.725,714.544 791.439,722.734 771.438,722.734C756.816,722.734 745.386,717.984 739.671,709.629C738.159,707.5 739.167,705.37 741.857,704.551Z" style="fill-rule:nonzero;"/><path d="M863.881,711.432C874.806,711.432 881.361,707.008 884.89,703.732C886.067,702.749 887.747,702.258 889.26,702.913L894.303,704.715C897.159,705.861 898,708.155 895.984,710.285C890.269,716.182 879.848,722.734 863.881,722.734C837.157,722.734 822.03,705.043 822.03,680.797C822.03,656.553 837.157,638.859 862.201,638.859C884.554,638.859 902.538,652.621 902.034,682.6C902.034,684.729 900.353,686.203 898.168,686.203L836.149,686.203C837.997,700.947 846.738,711.432 863.881,711.432ZM862.201,650.163C847.074,650.163 837.997,660.647 836.149,675.555L887.411,675.555C887.411,660.976 877.663,650.163 862.201,650.163Z" style="fill-rule:nonzero;"/></g><g transform="matrix(0.0969963,0,0,0.0969963,10.2817,13.2086)"><g><path d="M937.677,761.739L937.677,766.407L932.344,766.407L932.344,778.56L927.184,778.56L927.184,766.407L921.852,766.407L921.852,761.739L937.677,761.739Z" style="fill-rule:nonzero;"/><path d="M960.937,761.739L960.937,778.56L955.875,778.56L955.875,770.09L952.492,775.167L949.851,775.167L946.469,770.09L946.469,778.56L941.408,778.56L941.408,761.739L946.098,761.739L951.159,769.367L956.245,761.739L960.937,761.739Z" style="fill-rule:nonzero;"/></g></g></g><defs><linearGradient id="_Linear1" x1="0" y1="0" x2="1" y2="0" gradientUnits="userSpaceOnUse" gradientTransform="matrix(109.823,16.0774,-16.0774,109.823,364.333,409.95)"><stop offset="0" style="stop-color:rgb(0,125,153);stop-opacity:1"/><stop offset="0.18" style="stop-color:rgb(0,125,153);stop-opacity:1"/><stop offset="0.38" style="stop-color:rgb(0,146,178);stop-opacity:1"/><stop offset="0.61" style="stop-color:rgb(0,169,206);stop-opacity:1"/><stop offset="0.74" style="stop-color:rgb(0,178,218);stop-opacity:1"/><stop offset="1" style="stop-color:rgb(0,178,218);stop-opacity:1"/></linearGradient><linearGradient id="_Linear2" x1="0" y1="0" x2="1" y2="0" gradientUnits="userSpaceOnUse" gradientTransform="matrix(210.966,43.5463,-43.5463,210.966,336.517,171.58)"><stop offset="0" style="stop-color:rgb(113,149,61);stop-opacity:1"/><stop offset="0.03" style="stop-color:rgb(113,149,61);stop-opacity:1"/><stop offset="0.05" style="stop-color:rgb(117,154,61);stop-opacity:1"/><stop offset="0.12" style="stop-color:rgb(129,171,62);stop-opacity:1"/><stop offset="0.2" style="stop-color:rgb(138,184,62);stop-opacity:1"/><stop offset="0.29" style="stop-color:rgb(144,193,62);stop-opacity:1"/><stop offset="0.42" style="stop-color:rgb(147,196,62);stop-opacity:1"/><stop offset="1" style="stop-color:rgb(147,196,62);stop-opacity:1"/></linearGradient></defs></svg>