<?xml version="1.0" encoding="UTF-8" standalone="no"?>
<!DOCTYPE svg PUBLIC "-//W3C//DTD SVG 1.1//EN" "http://www.w3.org/Graphics/SVG/1.1/DTD/svg11.dtd">
<svg width="100%" height="100%" viewBox="0 0 120 112" version="1.1" xmlns="http://www.w3.org/2000/svg" xmlns:xlink="http://www.w3.org/1999/xlink" xml:space="preserve" xmlns:serif="http://www.serif.com/" style="fill-rule:evenodd;clip-rule:evenodd;stroke-linejoin:round;stroke-miterlimit:2;">
    <g transform="matrix(0.166933,0,0,0.166933,-24.6725,8.95047)">
        <g>
            <path d="M582.89,507.334L582.944,507.388C571.009,518.535 540.513,521.015 500.213,521.051L499.389,521.051C459.081,521.015 428.585,518.535 416.65,507.388L416.703,507.334C426.445,513.485 434.781,511.023 447.36,502.67C461.74,493.116 479.736,478.773 499.801,461.358C519.857,478.773 537.854,493.116 552.233,502.67C564.813,511.023 573.149,513.485 582.89,507.334Z" style="fill:rgb(0,152,202);fill-rule:nonzero;"/>
            <path d="M648.762,316.239C646.47,330.922 644.079,344.102 641.724,354.631C633.765,390.231 611.703,472.523 591.772,498.9C588.961,501.613 586.096,504.38 583.15,507.2C583.087,507.263 583.016,507.325 582.944,507.388L582.89,507.334C573.149,513.485 564.813,511.023 552.233,502.67C537.854,493.116 519.857,478.773 499.801,461.358C544.981,422.132 600.601,367.274 648.762,316.239Z" style="fill:rgb(0,178,218);fill-rule:nonzero;"/>
            <path d="M416.703,507.334L416.65,507.388C416.578,507.325 416.506,507.263 416.444,507.2C413.507,504.389 410.651,501.631 407.848,498.927C387.909,472.604 365.847,390.249 357.87,354.631C355.515,344.093 353.124,330.913 350.832,316.221C398.984,367.256 454.613,422.123 499.801,461.358C479.736,478.773 461.74,493.116 447.36,502.67C434.781,511.023 426.445,513.485 416.703,507.334Z" style="fill:url(#_Linear1);fill-rule:nonzero;"/>
            <path d="M751.172,166.365C752.498,203.683 747.072,308.888 725.646,341.022C682.803,405.291 652.46,440.263 591.772,498.9C611.703,472.523 633.765,390.231 641.724,354.631C644.079,344.102 646.47,330.922 648.762,316.239C681.084,281.982 710.049,249.445 730.23,224.518C744.86,206.45 751.172,184.568 751.038,166.419C751.02,164.1 750.949,161.826 750.832,159.596C750.984,161.924 751.101,164.198 751.172,166.365Z" style="fill:rgb(0,163,138);fill-rule:nonzero;"/>
            <path d="M248.556,166.419C248.421,184.568 254.734,206.45 269.364,224.518C289.545,249.445 318.501,281.973 350.832,316.221C353.124,330.913 355.515,344.093 357.87,354.631C365.847,390.249 387.909,472.604 407.848,498.927C347.143,440.272 316.791,405.3 273.948,341.022C252.531,308.888 247.105,203.683 248.421,166.365C248.502,164.198 248.609,161.933 248.762,159.605C248.645,161.826 248.573,164.1 248.556,166.419Z" style="fill:rgb(0,163,138);fill-rule:nonzero;"/>
            <path d="M576.963,289.342C566.487,300.364 539.591,303.838 499.801,304.277C460.012,303.838 433.106,300.364 422.631,289.342L422.675,289.306C434.593,302.047 467.407,269.215 499.801,230.884C532.195,269.215 565.001,302.047 576.918,289.306L576.963,289.342Z" style="fill:rgb(108,169,67);fill-rule:nonzero;"/>
            <path d="M576.918,289.306C565.001,302.047 532.195,269.215 499.801,230.884C522.588,203.925 545.169,174.262 560.121,155.809C599.428,107.325 616.242,88.317 632.439,76.991C632.511,76.937 632.583,76.892 632.654,76.847C655.862,65.414 663.034,116.941 663.786,147.921C664.028,157.85 663.66,170.752 662.837,185.391C631.956,223.713 609.554,251.316 577.661,288.572C577.438,288.832 577.205,289.091 576.963,289.342L576.918,289.306Z" style="fill:rgb(147,196,62);fill-rule:nonzero;"/>
            <path d="M422.675,289.306L422.631,289.342C422.389,289.091 422.156,288.832 421.932,288.572C390.04,251.316 367.638,223.713 336.757,185.391C335.933,170.752 335.566,157.85 335.808,147.921C336.56,116.941 343.741,65.414 366.94,76.847C367.011,76.892 367.083,76.937 367.154,76.991C383.351,88.317 400.166,107.325 439.472,155.809C454.425,174.262 477.006,203.925 499.801,230.884C467.407,269.215 434.593,302.047 422.675,289.306Z" style="fill:url(#_Linear2);fill-rule:nonzero;"/>
            <path d="M737.133,115.186C743.41,120.8 746.982,131.742 748.961,143.381C746.32,128.948 741.449,118.589 735.978,115.813C725.771,110.62 690.288,151.323 664.627,183.162C664.028,183.905 663.428,184.648 662.837,185.391C663.66,170.752 664.028,157.85 663.786,147.921C663.034,116.941 655.862,65.414 632.654,76.847C657.742,59.719 713.254,93.814 737.133,115.186Z" style="fill:rgb(189,203,49);fill-rule:nonzero;"/>
            <path d="M334.966,183.162C309.314,151.323 273.823,110.62 263.615,115.813C258.181,118.571 253.328,128.823 250.678,143.113C252.674,131.571 256.238,120.756 262.46,115.186C286.34,93.814 341.852,59.719 366.94,76.847C343.741,65.414 336.56,116.941 335.808,147.921C335.566,157.85 335.933,170.752 336.757,185.391C336.166,184.648 335.566,183.905 334.966,183.162Z" style="fill:rgb(189,203,49);fill-rule:nonzero;"/>
            <path d="M751.038,166.419C751.172,184.568 744.86,206.45 730.23,224.518C710.049,249.445 681.084,281.982 648.762,316.239C655.047,276.001 660.607,224.5 662.837,185.391C663.428,184.648 664.028,183.905 664.627,183.162C690.288,151.323 725.771,110.62 735.978,115.813C741.449,118.589 746.32,128.948 748.961,143.381C749.883,148.762 750.465,154.287 750.823,159.516C750.823,159.542 750.832,159.569 750.832,159.596C750.949,161.826 751.02,164.1 751.038,166.419Z" style="fill:rgb(207,212,41);fill-rule:nonzero;"/>
            <path d="M336.757,185.391C338.987,224.5 344.547,275.992 350.832,316.221C318.501,281.973 289.545,249.445 269.364,224.518C254.734,206.45 248.421,184.568 248.556,166.419C248.573,164.1 248.645,161.826 248.762,159.605C248.762,159.578 248.77,159.542 248.77,159.516C249.129,154.278 249.711,148.744 250.633,143.354C250.651,143.274 250.66,143.193 250.678,143.113C253.328,128.823 258.181,118.571 263.615,115.813C273.823,110.62 309.314,151.323 334.966,183.162C335.566,183.905 336.166,184.648 336.757,185.391Z" style="fill:rgb(207,212,41);fill-rule:nonzero;"/>
        </g>
    </g>
    <defs>
        <linearGradient id="_Linear1" x1="0" y1="0" x2="1" y2="0" gradientUnits="userSpaceOnUse" gradientTransform="matrix(109.823,16.0774,-16.0774,109.823,364.333,409.95)"><stop offset="0" style="stop-color:rgb(0,125,153);stop-opacity:1"/><stop offset="0.18" style="stop-color:rgb(0,125,153);stop-opacity:1"/><stop offset="0.38" style="stop-color:rgb(0,146,178);stop-opacity:1"/><stop offset="0.61" style="stop-color:rgb(0,169,206);stop-opacity:1"/><stop offset="0.74" style="stop-color:rgb(0,178,218);stop-opacity:1"/><stop offset="1" style="stop-color:rgb(0,178,218);stop-opacity:1"/></linearGradient>
        <linearGradient id="_Linear2" x1="0" y1="0" x2="1" y2="0" gradientUnits="userSpaceOnUse" gradientTransform="matrix(210.966,43.5463,-43.5463,210.966,336.517,171.58)"><stop offset="0" style="stop-color:rgb(113,149,61);stop-opacity:1"/><stop offset="0.03" style="stop-color:rgb(113,149,61);stop-opacity:1"/><stop offset="0.05" style="stop-color:rgb(117,154,61);stop-opacity:1"/><stop offset="0.12" style="stop-color:rgb(129,171,62);stop-opacity:1"/><stop offset="0.2" style="stop-color:rgb(138,184,62);stop-opacity:1"/><stop offset="0.29" style="stop-color:rgb(144,193,62);stop-opacity:1"/><stop offset="0.42" style="stop-color:rgb(147,196,62);stop-opacity:1"/><stop offset="1" style="stop-color:rgb(147,196,62);stop-opacity:1"/></linearGradient>
    </defs>
</svg>
